<?xml version="1.0" encoding="utf-8"?>
<!-- Generator: Adobe Illustrator 16.0.3, SVG Export Plug-In . SVG Version: 6.00 Build 0)  -->
<!DOCTYPE svg PUBLIC "-//W3C//DTD SVG 1.1//EN" "http://www.w3.org/Graphics/SVG/1.1/DTD/svg11.dtd">
<svg version="1.1" id="Capa_1" xmlns="http://www.w3.org/2000/svg" xmlns:xlink="http://www.w3.org/1999/xlink" x="0px" y="0px"
	 width="496px" height="496px" viewBox="0 0 496 496" enable-background="new 0 0 496 496" xml:space="preserve">
<path fill="#FFC555" d="M137.974,98.678c-15.128,5.715-25.968,20.227-25.968,37.328c0,6.585,1.754,12.714,4.586,18.203
	c-12,4.613-20.586,16.184-20.586,29.796c0,13.617,8.586,25.183,20.586,29.8c-2.832,5.488-4.586,11.617-4.586,18.199
	c0,17.105,10.84,31.617,25.968,37.328c-1.199,3.352-1.969,6.913-1.969,10.671c0,17.648,14.351,32,32,32
	c3.984,0,7.762-0.824,11.281-2.152c5.184,10.699,16.055,18.152,28.718,18.152c17.648,0,32-14.352,32-32V72.006
	c0-17.644-14.351-32-32-32c-12.664,0-23.535,7.457-28.718,18.152c-3.519-1.328-7.296-2.152-11.281-2.152
	c-17.648,0-32,14.355-32,31.999C136.005,91.768,136.775,95.326,137.974,98.678z M168.005,72.006c8.824,0,16,7.176,16,16h16
	c0-7.687-2.839-14.664-7.375-20.183c1.855-6.781,8.007-11.816,15.375-11.816c8.824,0,16,7.176,16,16v223.996c0,8.824-7.176,16-16,16
	c-7.367,0-13.519-5.031-15.375-11.816c4.535-5.52,7.375-12.492,7.375-20.184h-16c0,8.824-7.175,16-16,16s-16-7.176-16-16
	c0-8.823,7.176-15.999,16-15.999v-16c-7.793,0-14.848,2.914-20.398,7.555c-11.136-2.074-19.601-11.824-19.601-23.554
	c0-13.23,10.77-24,24-24c13.234,0,24,10.77,24,24h16c0-22.054-17.941-40-40-40c-9.039,0-17.296,3.129-24,8.211v-0.211
	c-8.824,0-16-7.176-16-16c0-8.824,7.176-16,16-16v-0.207c6.703,5.082,14.961,8.207,24,8.207c22.059,0,40-17.941,40-39.999h-16
	c0,13.234-10.766,24-24,24c-13.23,0-24-10.766-24-24c0-11.727,8.465-21.476,19.601-23.55c5.551,4.641,12.605,7.55,20.398,7.55v-16
	c-8.824,0-16-7.176-16-16C152.005,79.182,159.181,72.006,168.005,72.006z"/>
<path fill="#FFC555" d="M328.002,56.007c-3.984,0-7.758,0.824-11.277,2.152c-5.188-10.695-16.059-18.152-28.723-18.152
	c-17.647,0-31.999,14.355-31.999,32v223.996c0,17.648,14.352,32,31.999,32c12.664,0,23.535-7.453,28.723-18.152
	c3.52,1.328,7.293,2.152,11.277,2.152c17.648,0,31.999-14.352,31.999-32c0-3.758-0.766-7.319-1.969-10.671
	c15.129-5.711,25.969-20.223,25.969-37.328c0-6.582-1.75-12.71-4.582-18.199c11.999-4.617,20.581-16.184,20.581-29.8
	c0-13.613-8.582-25.183-20.581-29.796c2.832-5.488,4.582-11.617,4.582-18.203c0-17.101-10.84-31.613-25.969-37.328
	c1.203-3.352,1.969-6.91,1.969-10.672C360.001,70.362,345.65,56.007,328.002,56.007z M368.001,136.005c0,13.234-10.766,24-23.999,24
	c-13.23,0-24-10.766-24-24h-16c0,22.058,17.945,39.999,40,39.999c9.039,0,17.296-3.125,23.999-8.207v0.207c8.824,0,16,7.175,16,16
	c0,8.824-7.176,16-16,16v0.211c-6.703-5.082-14.96-8.211-23.999-8.211c-22.055,0-40,17.945-40,40h16c0-13.23,10.77-24,24-24
	c13.233,0,23.999,10.77,23.999,24c0,11.73-8.465,21.48-19.597,23.554c-5.555-4.641-12.609-7.555-20.402-7.555v16
	c8.824,0,16,7.176,16,15.999c0,8.824-7.176,16-16,16s-16-7.176-16-16h-16c0,7.691,2.84,14.664,7.375,20.184
	c-1.855,6.785-8.008,11.816-15.375,11.816c-8.823,0-15.999-7.176-15.999-16V72.006c0-8.824,7.176-16,15.999-16
	c7.367,0,13.52,5.035,15.375,11.816c-4.535,5.519-7.375,12.496-7.375,20.183h16c0-8.824,7.176-16,16-16s16,7.176,16,16
	c0,8.824-7.176,16-16,16v16c7.793,0,14.848-2.91,20.402-7.55C359.536,114.529,368.001,124.279,368.001,136.005z"/>
<path fill="#FFC555" d="M373.978,49.897C336.596,14.762,287.635-2.855,236.253,0.379l0.992,15.964
	c46.948-2.917,91.635,13.137,125.779,45.21C397.185,93.654,416,137.15,416,184.004c0,56.464-28.145,108.822-75.287,140.064
	c-16.262,10.781-28.566,26.159-36.148,43.933H191.11c-7.688-17.902-20.039-33.39-36.328-44.269
	c-48.585-32.473-76.502-86.702-74.686-145.087l-15.992-0.496c-1.992,63.937,28.589,123.333,81.791,158.879
	c11.75,7.855,21.133,18.551,27.672,30.973h-21.563v16h27.945c1.551,5.184,2.793,10.495,3.422,15.999h-15.367v16h16v23.999
	c0,4.426,3.586,8,8,8h8c0,26.473,21.527,47.999,48,47.999s47.999-21.526,47.999-47.999h8c4.418,0,8-3.574,8-8V416h16v-16h-15.438
	c0.566-5.496,1.695-10.823,3.215-15.999h28.223v-16h-21.91c6.445-12.285,15.773-22.848,27.465-30.59
	C401.176,303.178,432,245.835,432,184.004C432,133.431,410.848,84.545,373.978,49.897z M248.003,479.999c-17.648,0-32-14.352-32-32
	h63.999C280.003,465.647,265.651,479.999,248.003,479.999z M296.002,432h-95.998v-16h95.998V432z M296.572,400h-97.209
	c-0.535-5.445-1.398-10.796-2.71-15.999h102.408C297.787,389.196,297.049,394.57,296.572,400z"/>
<path fill="#FFC555" d="M56.007,56.007c17.648,0,32,14.355,32,31.999c0,4.426,3.586,8,8,8c4.418,0,8-3.574,8-8
	c0-17.644,14.352-31.999,32-31.999c4.418,0,8-3.574,8-8c0-4.422-3.582-8-8-8c-17.648,0-32-14.351-32-31.999c0-4.422-3.582-8-8-8
	c-4.414,0-8,3.578-8,8c0,17.648-14.351,31.999-32,31.999c-4.414,0-8,3.578-8,8C48.007,52.433,51.593,56.007,56.007,56.007z
	 M96.006,34.511c3.555,5.343,8.152,9.945,13.496,13.496c-5.344,3.555-9.941,8.152-13.496,13.496
	c-3.55-5.344-8.152-9.941-13.496-13.496C87.854,44.456,92.456,39.854,96.006,34.511z"/>
<path fill="#FFC555" d="M88.006,136.005c4.418,0,8-3.574,8-8c0-4.422-3.582-8-8-8c-17.648,0-32-14.351-32-32c0-4.421-3.582-8-8-8
	c-4.414,0-8,3.578-8,8c0,17.648-14.352,32-32,32c-4.414,0-8,3.578-8,8c0,4.426,3.586,8,8,8c17.648,0,32,14.355,32,32
	c0,4.425,3.585,8,8,8c4.418,0,8-3.574,8-8C56.007,150.36,70.358,136.005,88.006,136.005z M48.007,141.501
	c-3.551-5.343-8.152-9.941-13.496-13.496c5.344-3.551,9.937-8.152,13.496-13.496c3.555,5.344,8.152,9.937,13.496,13.496
	C56.159,131.56,51.562,136.158,48.007,141.501z"/>
</svg>
