<svg id="Capa_1" enable-background="new 0 0 512 512" height="512" viewBox="0 0 512 512" width="512" xmlns="http://www.w3.org/2000/svg"><g><g><g><g><path d="m123.235 442.802c.001 0 .001 0 0 0 3.28 3.279 7.586 4.917 11.893 4.917 4.306 0 8.614-1.64 11.892-4.917l11.984-11.985c6.556-6.558 6.556-17.228 0-23.784l-54.04-54.039c-6.555-6.555-17.224-6.556-23.785 0l-11.984 11.984c-6.557 6.557-6.557 17.226 0 23.785zm-43.431-67.216 11.983-11.984c.709-.706 1.862-.709 2.569 0l54.04 54.04c.708.708.708 1.861 0 2.568l-11.984 11.984c-.708.71-1.861.707-2.569 0h.001l-54.039-54.039c-.709-.709-.709-1.861-.001-2.569z"/><path d="m506.066 110.025-15.336-15.337c6.354-9.493 5.218-22.23-3.006-30.455l-39.96-39.96c-8.224-8.224-20.962-9.363-30.455-3.006l-15.337-15.336c-7.913-7.913-20.789-7.911-28.745.046-3.833 3.833-5.945 8.929-5.945 14.351s2.112 10.518 5.944 14.351l12.2 12.201-5.603 4.524-11.661-11.661c-7.913-7.911-20.787-7.911-28.747.046-7.911 7.912-7.912 20.787 0 28.701l9.386 9.386c-2.379 3.569-3.799 7.745-4.031 12.107-.362 6.825 2.201 13.51 7.033 18.344l.927.927-100.251 100.25c-37.575-21.065-80.979-19.813-107.176 6.382-10.311 10.312-17.173 23.79-19.843 38.976-.162.922-1.033 1.57-1.647 1.509-17.625-1.661-34.614.241-50.494 5.659-3.92 1.338-6.014 5.601-4.677 9.522 1.338 3.921 5.601 6.011 9.522 4.677 13.858-4.728 28.745-6.385 44.24-4.923 8.502.799 16.323-5.281 17.832-13.846 2.134-12.136 7.555-22.845 15.677-30.966 20.56-20.562 54.668-21.781 85.517-5.941l-51.772 51.772c-14.015-.542-28.208 4.516-38.885 15.191-20.32 20.321-20.32 53.386 0 73.707 10.161 10.16 23.507 15.24 36.854 15.24 13.346 0 26.693-5.081 36.854-15.24 10.676-10.676 15.733-24.87 15.192-38.885l51.78-51.78c15.843 30.851 14.612 64.964-5.95 85.526-8.121 8.122-18.83 13.543-30.967 15.677-8.565 1.508-14.646 9.34-13.845 17.831 2.938 31.142-6.658 59.506-27.02 79.868-19.622 19.623-46.921 29.298-76.863 27.266-30.328-2.066-59.693-15.865-82.682-38.855-22.99-22.989-36.789-52.354-38.855-82.682-2.039-29.945 7.645-57.241 27.268-76.864 2.311-2.313 4.772-4.524 7.315-6.572 3.227-2.598 3.736-7.32 1.137-10.546-2.597-3.226-7.319-3.737-10.546-1.137-2.96 2.384-5.826 4.958-8.516 7.647-22.732 22.733-33.964 54.158-31.625 88.49 2.312 33.948 17.659 66.717 43.213 92.272 25.555 25.554 58.324 40.901 92.272 43.213 2.977.203 5.932.304 8.863.304 30.854 0 58.867-11.168 79.627-31.929 23.239-23.238 34.665-56.728 31.348-91.885-.06-.628.587-1.484 1.508-1.646 15.187-2.67 28.665-9.532 38.977-19.844 26.195-26.196 27.446-69.6 6.381-107.175l55.824-55.824c2.929-2.93 2.929-7.679 0-10.609-2.93-2.928-7.679-2.928-10.609 0l-111.761 111.763c-2.54-6.311-6.361-12.223-11.467-17.33-5.107-5.106-11.019-8.927-17.331-11.467l156.19-156.19 28.797 28.797-19.843 19.842c-2.929 2.93-2.929 7.679 0 10.609 2.93 2.928 7.679 2.928 10.609 0l19.843-19.843.927.927c4.531 4.531 10.691 7.066 17.067 7.066.424 0 .851-.011 1.276-.033 4.362-.232 8.538-1.652 12.107-4.031l9.387 9.387c3.951 3.95 9.138 5.928 14.333 5.928 5.211 0 10.428-1.99 14.413-5.974 7.912-7.913 7.912-20.788 0-28.701l-11.661-11.661 4.524-5.603 12.2 12.2c3.833 3.833 8.929 5.945 14.351 5.945 5.421 0 10.518-2.112 14.293-5.887.02-.02.084-.083.104-.103 7.913-7.913 7.912-20.788 0-28.7zm-292.195 188.101c14.472 14.471 14.472 38.018 0 52.489-14.471 14.473-38.019 14.473-52.49 0-14.472-14.471-14.472-38.018 0-52.489 7.235-7.236 16.74-10.854 26.245-10.854 9.504 0 19.01 3.618 26.245 10.854zm169.963-274.057c-.999-.999-1.55-2.328-1.55-3.742s.551-2.742 1.595-3.788c1.032-1.031 2.388-1.548 3.743-1.548 1.356 0 2.71.516 3.742 1.548l14.134 14.133-8.332 6.728zm-33.809 33.811c-2.064-2.064-2.064-5.422.046-7.53 1.031-1.032 2.386-1.548 3.742-1.548s2.71.516 3.742 1.548l10.531 10.531-8.333 6.728zm111.622 96.563c2.064 2.063 2.064 5.421-.046 7.529-2.062 2.064-5.42 2.066-7.483 0l-9.729-9.729 6.728-8.332zm-33.81-5.58c-1.648 2.041-3.999 3.243-6.618 3.381-2.618.132-5.084-.806-6.938-2.66l-51.867-51.866c-1.855-1.856-2.8-4.32-2.66-6.939.139-2.62 1.34-4.969 3.381-6.618l61.833-49.926c1.686-1.361 3.713-2.032 5.735-2.032 2.343 0 4.677.903 6.453 2.68l39.96 39.96c3.309 3.308 3.586 8.548.647 12.188zm67.678-20.802c-.02.02-.084.083-.104.103-.999.999-2.329 1.55-3.742 1.55s-2.743-.551-3.742-1.551l-13.331-13.331 6.728-8.332 14.133 14.134c2.064 2.063 2.064 5.42.058 7.427z"/><path d="m479.364 252.053c-20.035-7.49-28.823-27.11-32.279-38.138-1.274-4.069-4.998-6.804-9.266-6.804-4.267 0-7.991 2.734-9.266 6.803-3.456 11.029-12.244 30.649-32.28 38.14-3.819 1.429-6.287 4.995-6.287 9.086 0 4.093 2.468 7.658 6.288 9.088 20.036 7.491 28.823 27.111 32.279 38.138 1.274 4.069 4.998 6.804 9.266 6.804s7.992-2.735 9.266-6.803c3.456-11.028 12.243-30.647 32.28-38.14 3.819-1.429 6.287-4.995 6.287-9.087-.001-4.092-2.469-7.658-6.288-9.087zm-41.545 39.053c-5.01-10.357-13.141-22.077-26.075-29.965 12.931-7.888 21.065-19.609 26.075-29.966 5.01 10.358 13.141 22.078 26.075 29.966-12.932 7.888-21.065 19.608-26.075 29.965z"/><path d="m72.087 165.168c20.036 7.49 28.824 27.11 32.279 38.139 1.275 4.068 4.999 6.802 9.266 6.802 4.268 0 7.991-2.734 9.266-6.801 3.456-11.03 12.245-30.65 32.279-38.14 3.82-1.429 6.288-4.996 6.288-9.088s-2.468-7.659-6.288-9.088c-20.034-7.49-28.823-27.11-32.279-38.139-1.275-4.068-4.998-6.802-9.266-6.802-4.267 0-7.991 2.734-9.266 6.802-3.455 11.029-12.243 30.648-32.28 38.14-3.819 1.429-6.286 4.996-6.286 9.087.001 4.091 2.468 7.658 6.287 9.088zm41.545-39.054c5.01 10.356 13.144 22.078 26.076 29.966-12.931 7.888-21.065 19.609-26.076 29.966-5.01-10.357-13.141-22.078-26.075-29.966 12.932-7.888 21.066-19.61 26.075-29.966z"/><path d="m179.166 85.971c15.281 5.714 22.023 20.798 24.681 29.281 1.216 3.877 4.764 6.482 8.83 6.482 4.067 0 7.615-2.605 8.831-6.482 2.657-8.484 9.4-23.568 24.68-29.281 3.643-1.362 5.998-4.762 5.998-8.662s-2.355-7.301-5.997-8.662c-15.281-5.714-22.024-20.798-24.681-29.281-1.216-3.878-4.764-6.482-8.831-6.482-4.066 0-7.614 2.605-8.83 6.482-2.657 8.483-9.4 23.567-24.681 29.282-3.642 1.361-5.996 4.761-5.996 8.661s2.354 7.299 5.996 8.662zm33.512-29.039c3.835 7.131 9.52 14.722 17.833 20.377-8.314 5.655-13.998 13.246-17.834 20.377-3.835-7.131-9.52-14.722-17.833-20.377 8.314-5.655 13.998-13.246 17.834-20.377z"/></g></g></g></g></svg>