<?xml version="1.0" encoding="utf-8"?>
<!-- Generator: Adobe Illustrator 16.0.3, SVG Export Plug-In . SVG Version: 6.00 Build 0)  -->
<!DOCTYPE svg PUBLIC "-//W3C//DTD SVG 1.1//EN" "http://www.w3.org/Graphics/SVG/1.1/DTD/svg11.dtd">
<svg version="1.1" id="Capa_1" xmlns="http://www.w3.org/2000/svg" xmlns:xlink="http://www.w3.org/1999/xlink" x="0px" y="0px"
	 width="480px" height="456px" viewBox="0 0 480 456" enable-background="new 0 0 480 456" xml:space="preserve">
<path fill="#FFC555" d="M197.656,61.656c-3.125-3.125-8.188-3.125-11.313,0L176,72l-10.344-10.344
	c-3.141-3.031-8.129-2.988-11.215,0.098s-3.129,8.074-0.098,11.215l10.344,10.344l-10.344,10.344
	c-2.078,2.008-2.914,4.984-2.18,7.781c0.73,2.797,2.914,4.98,5.711,5.711c2.797,0.734,5.773-0.102,7.781-2.18L176,94.625
	l10.344,10.344c2.008,2.078,4.984,2.914,7.781,2.18c2.797-0.73,4.98-2.914,5.711-5.711c0.734-2.797-0.102-5.773-2.18-7.781
	l-10.344-10.344l10.344-10.344C200.777,69.844,200.777,64.781,197.656,61.656z"/>
<path fill="#FFC555" d="M324,48c0-4.418-3.582-8-8-8h-72c-3.98,0-7.355,2.926-7.922,6.863l-4.375,30.648l-4.504-9.086
	c-1.262-2.582-3.813-4.285-6.68-4.465s-5.613,1.191-7.191,3.59c-1.574,2.402-1.746,5.465-0.441,8.023l16,32
	c1.348,2.699,4.098,4.41,7.113,4.426c0.43,0,0.855-0.035,1.281-0.105c3.453-0.559,6.141-3.297,6.641-6.758L250.938,56H316
	C320.418,56,324,52.418,324,48z"/>
<path fill="#FFC555" d="M262.289,113.152c3.09,3.156,8.152,3.211,11.313,0.121l32-31.328c3.156-3.094,3.211-8.164,0.117-11.32
	c-3.09-3.16-8.16-3.215-11.32-0.121l-10.16,9.953l-9.711-10.402c-1.934-2.172-4.891-3.121-7.727-2.484
	c-2.836,0.633-5.105,2.758-5.926,5.547c-0.816,2.789-0.059,5.805,1.98,7.875l9.945,10.656l-10.402,10.184
	c-1.516,1.484-2.379,3.512-2.402,5.637C259.977,109.594,260.801,111.637,262.289,113.152z"/>
<path fill="#FFC555" d="M340,112c4.418,0,8-3.582,8-8v-8h8c4.418,0,8-3.582,8-8s-3.582-8-8-8h-8v-8c0-4.418-3.582-8-8-8
	s-8,3.582-8,8v8h-8c-4.418,0-8,3.582-8,8s3.582,8,8,8h8v8C332,108.418,335.582,112,340,112z"/>
<path fill="#FFC555" d="M424,104c0-4.418-3.582-8-8-8h-12.688l18.344-18.344c2.285-2.289,2.973-5.73,1.734-8.719S419.234,64,416,64
	h-32c-4.418,0-8,3.582-8,8s3.582,8,8,8h12.688l-18.344,18.344c-2.285,2.289-2.973,5.73-1.734,8.719S380.766,112,384,112h32
	C420.418,112,424,108.418,424,104z"/>
<path fill="#FFC555" d="M472,144c-4.418,0-8,3.582-8,8c-0.027,22.082-17.918,39.973-40,40c-4.418,0-8,3.582-8,8v81.871L366.945,196
	c-1.434-2.48-4.082-4.004-6.945-4h-16c-0.035-30.914-25.086-55.965-56-56H128V56c0.027-22.082,17.918-39.973,40-40h256
	c22.082,0.027,39.973,17.918,40,40c0,4.418,3.582,8,8,8s8-3.582,8-8c-0.035-30.914-25.086-55.965-56-56H168
	c-30.914,0.035-55.965,25.086-56,56v80H56c-30.914,0.035-55.965,25.086-56,56c0,4.418,3.582,8,8,8s8-3.582,8-8
	c0.027-22.082,17.918-39.973,40-40h232c22.082,0.027,39.973,17.918,40,40v96c-0.027,22.082-17.918,39.973-40,40H168
	c-2.121,0-4.156,0.844-5.656,2.344L64,428.688V336c0-4.418-3.582-8-8-8c-22.082-0.027-39.973-17.918-40-40c0-4.418-3.582-8-8-8
	s-8,3.582-8,8c0.035,27.824,20.465,51.418,48,55.434V448c0,3.234,1.949,6.152,4.938,7.391c0.969,0.406,2.012,0.613,3.063,0.609
	c2.121,0,4.156-0.844,5.656-2.344L171.313,344H288c30.914-0.035,55.965-25.086,56-56v-80h11.359l61.695,108
	c1.434,2.48,4.082,4.004,6.945,4c0.695,0,1.383-0.09,2.055-0.266c3.508-0.93,5.949-4.105,5.945-7.734V207.434
	c27.535-4.016,47.965-27.609,48-55.434C480,147.582,476.418,144,472,144z"/>
<path fill="#FFC555" d="M32,232v64c0,4.418,3.582,8,8,8h40c4.418,0,8-3.582,8-8s-3.582-8-8-8H48v-16h24c4.418,0,8-3.582,8-8
	s-3.582-8-8-8H48v-16h32c4.418,0,8-3.582,8-8s-3.582-8-8-8H40C35.582,224,32,227.582,32,232z"/>
<path fill="#FFC555" d="M144,264v32c0,4.418,3.582,8,8,8s8-3.582,8-8v-32c0-4.418,3.582-8,8-8s8,3.582,8,8v32c0,4.418,3.582,8,8,8
	s8-3.582,8-8v-32c0-4.418,3.582-8,8-8s8,3.582,8,8v32c0,4.418,3.582,8,8,8s8-3.582,8-8v-32c0.043-9.484-5.531-18.098-14.199-21.945
	s-18.793-2.207-25.801,4.184c-7.008-6.391-17.133-8.031-25.801-4.184S143.957,254.516,144,264z"/>
<path fill="#FFC555" d="M256,304h8c4.418,0,8-3.582,8-8s-3.582-8-8-8h-8c-8.836,0-16-7.164-16-16s7.164-16,16-16h8
	c4.418,0,8-3.582,8-8s-3.582-8-8-8h-8c-17.672,0-32,14.328-32,32S238.328,304,256,304z"/>
<path fill="#FFC555" d="M280,192c-13.254,0-24,10.746-24,24v8c0,4.418,3.582,8,8,8h32c4.418,0,8-3.582,8-8s-3.582-8-8-8h-24
	c0-4.418,3.582-8,8-8c13.254,0,24-10.746,24-24s-10.746-24-24-24s-24,10.746-24,24c0,4.418,3.582,8,8,8s8-3.582,8-8s3.582-8,8-8
	s8,3.582,8,8S284.418,192,280,192z"/>
<path fill="#FFC555" d="M104,264h16c4.418,0,8-3.582,8-8s-3.582-8-8-8h-16c-4.418,0-8,3.582-8,8S99.582,264,104,264z"/>
<path fill="#FFC555" d="M104,288h16c4.418,0,8-3.582,8-8s-3.582-8-8-8h-16c-4.418,0-8,3.582-8,8S99.582,288,104,288z"/>
<path fill="#FFC555" d="M376,152c0,4.418-3.582,8-8,8s-8-3.582-8-8s3.582-8,8-8S376,147.582,376,152z"/>
<path fill="#FFC555" d="M408,152c0,4.418-3.582,8-8,8s-8-3.582-8-8s3.582-8,8-8S408,147.582,408,152z"/>
<path fill="#FFC555" d="M440,152c0,4.418-3.582,8-8,8s-8-3.582-8-8s3.582-8,8-8S440,147.582,440,152z"/>
<path fill="#FFC555" d="M80,184c0,4.418-3.582,8-8,8s-8-3.582-8-8s3.582-8,8-8S80,179.582,80,184z"/>
<path fill="#FFC555" d="M112,184c0,4.418-3.582,8-8,8s-8-3.582-8-8s3.582-8,8-8S112,179.582,112,184z"/>
<path fill="#FFC555" d="M144,184c0,4.418-3.582,8-8,8s-8-3.582-8-8s3.582-8,8-8S144,179.582,144,184z"/>
<path fill="#FFC555" d="M176,184c0,4.418-3.582,8-8,8s-8-3.582-8-8s3.582-8,8-8S176,179.582,176,184z"/>
<path fill="#FFC555" d="M207.953,184.91c0.504-4.387-2.645-8.355-7.031-8.859c-4.391-0.508-8.359,2.641-8.863,7.031
	c-0.508,4.387,2.641,8.355,7.031,8.863C203.477,192.449,207.445,189.301,207.953,184.91z"/>
</svg>
