<?xml version="1.0" encoding="utf-8"?>
<!-- Generator: Adobe Illustrator 16.0.3, SVG Export Plug-In . SVG Version: 6.00 Build 0)  -->
<!DOCTYPE svg PUBLIC "-//W3C//DTD SVG 1.1//EN" "http://www.w3.org/Graphics/SVG/1.1/DTD/svg11.dtd">
<svg version="1.1" id="Capa_1" xmlns="http://www.w3.org/2000/svg" xmlns:xlink="http://www.w3.org/1999/xlink" x="0px" y="0px"
	 width="2040.939px" height="1773.864px" viewBox="793.705 133.538 2040.939 1773.864"
	 enable-background="new 793.705 133.538 2040.939 1773.864" xml:space="preserve">
<g>
	<g>
		<path fill="#FFC555" d="M2834.645,223.901c-0.012-24.168-9.451-46.878-26.563-63.935c-35.299-35.238-92.731-35.238-128.025-0.004
			l-156.905,156.63c-11.688,11.664-11.704,30.594-0.04,42.282c11.664,11.679,30.594,11.707,42.277,0.035l156.91-156.626
			c12.002-11.986,31.53-11.982,43.557,0.02c5.797,5.776,8.993,13.458,8.997,21.625c0,8.191-3.201,15.896-9.013,21.708
			l-465.609,464.789l-43.494-43.402l217.699-217.316c11.688-11.663,11.703-30.594,0.04-42.281
			c-11.663-11.68-30.594-11.708-42.277-0.036l-219.334,218.946c-10.87-4.588-23.897-2.471-32.759,6.374l-97.957,97.83
			c-120.694-129.433-336.755-340.578-405.03-406.98c-13.485-13.114-36.649-15.167-52.733-4.672
			c-14.243,9.292-19.872,26.11-14.008,41.84c13.166,35.337,11.986,81.697-3.496,137.787c-4.396,15.917,4.947,32.38,20.859,36.776
			c15.913,4.394,32.381-4.946,36.777-20.863c10.567-38.279,15.427-73.514,14.569-105.42c89.315,87.338,250.542,246.36,351.36,353.78
			c-98.79-6.183-218.584,33.907-357.344,119.702c-142.403,88.048-276.675,206.442-370.275,296.973l-44.498-44.418
			c62.819-68.676,256.478-288.642,357.831-496.651c7.23-14.845,1.063-32.738-13.78-39.974c-14.841-7.235-32.739-1.068-39.971,13.78
			c-114.26,234.493-359.918,495.25-367.09,502.829l-269.336,268.861c-0.016,0.018-0.032,0.029-0.044,0.041l-20.306,20.273
			l-22.423,22.383c-0.016,0.016-0.032,0.035-0.048,0.051l-32.723,32.672c-36.573,36.494-56.728,85.297-56.735,137.42
			c-0.009,53.252,20.859,103.418,58.769,141.256l110.977,110.785c39.128,39.057,90.395,58.629,141.398,58.629
			c50.031-0.004,99.818-18.842,137.62-56.6l129.117-128.891c11.684-11.664,11.703-30.594,0.036-42.281
			c-11.664-11.691-30.591-11.705-42.282-0.037l-129.117,128.895c-53.061,52.988-140.322,52.072-194.531-2.037l-110.976-110.781
			c-26.584-26.539-41.226-61.67-41.218-98.926c0.004-36.131,13.92-69.906,39.188-95.109l11.656-11.641l43.465,43.391l-11.604,11.58
			c-29.04,29.039-28.127,77.213,2.061,107.396l111.016,110.783c15.463,15.428,35.653,23.193,55.576,23.193
			c18.955,0,37.67-7.033,51.837-21.168l542.945-542.008l43.462,43.385l-323.48,322.924c-11.684,11.662-11.704,30.594-0.036,42.281
			c5.84,5.852,13.497,8.773,21.158,8.773c7.642,0,15.283-2.91,21.123-8.738l323.553-322.998l34.995,34.932
			c5.836,5.828,13.478,8.736,21.119,8.736s15.283-2.908,21.123-8.736l53.009-52.918c14.418-14.389,22.354-33.527,22.354-53.889
			c0-15.053-4.361-29.414-12.445-41.709l408.918-408.287c5.612-5.604,8.77-13.214,8.773-21.146c0-3.994-0.797-7.901-2.309-11.521
			l467.129-466.307C2825.222,270.839,2834.653,248.094,2834.645,223.901z M946.647,1447.701l270.138-269.66l43.481,43.406
			c-0.075,0.072,0.14-0.145,0.068-0.068c-0.068,0.068,0,0-0.068,0.068l-270.146,269.65L946.647,1447.701z M1114.439,1722.796
			c-5.665,5.641-16.168,4.717-22.937-2.033l-110.992-110.752c-6.732-6.738-7.666-17.189-2.061-22.793l32.675-32.604
			c0.04-0.041,0.083-0.072,0.123-0.111l12.991-12.969l135.895,135.652L1114.439,1722.796z M1202.447,1634.945l-135.895-135.65
			l132.04-131.801l135.894,135.65L1202.447,1634.945z M1622.41,1146.041l34.911,34.846l-280.525,280.016l-135.89-135.646
			c0.004-0.004,82.666-82.518,82.67-82.521c91.659-90.367,232.152-217.404,380.966-309.411
			c110.765-68.482,206.334-105.515,285.496-110.824l-218.826,218.524c-29.57-19.416-69.807-16.152-95.797,9.787l-53.009,52.912
			c-5.616,5.605-8.773,13.219-8.773,21.158C1613.633,1132.822,1616.79,1140.431,1622.41,1146.041z M1873.414,1248.453l-31.886,31.83
			l-155.682-155.402l31.811-31.754c6.438-6.43,16.905-6.426,23.343-0.004l132.414,132.18c3.101,3.092,4.808,7.207,4.808,11.574
			C1878.222,1241.246,1876.511,1245.357,1873.414,1248.453z M1884.396,1151.783l-69.758-69.631l253.606-253.255
			c3.42,0.881,6.809,1.822,10.145,2.866c15.196,4.76,31.276-1.136,40.006-14.693c7.785-12.086,8.495-28.051,2.715-40.958
			l80.135-80.027l69.811,69.651L1884.396,1151.783z"/>
	</g>
</g>
</svg>
